# xmcd
#
# Track frame offsets: 
#        150
#        17203
#        32809
#        54473
#        71737
#        91608
#        113996
#        135067
#        156488
#        173331
#        192471
#        220718
#
# Disc length: 3181 seconds
#
# Revision: 0
# Processed by: cddbd v1.5.2PL0 Copyright (c) Steve Scherf et al.
# Submitted via: ExactAudioCopy v0.99pb3
#
DISCID=9a0c6b0c
DTITLE=EG Kight - It's Hot In Here
DYEAR=2008
DGENRE=Blues
TTITLE0=I Want You Just 'Cause I Want You
TTITLE1=It's Hot In Here
TTITLE2=I'm New At This
TTITLE3=Then There's The Truth
TTITLE4=Roses And Promises
TTITLE5=Pass The Plate
TTITLE6=Sugar
TTITLE7=Through The Eyes Of A Child
TTITLE8=Love Me Or Let Me Go
TTITLE9=Southern Woman And A Nawthern Man
TTITLE10=House Of The Rising Sun
TTITLE11=You Can't Take It With You
EXTD=
EXTT0=
EXTT1=
EXTT2=
EXTT3=
EXTT4=
EXTT5=
EXTT6=
EXTT7=
EXTT8=
EXTT9=
EXTT10=
EXTT11=
PLAYORDER=
